<?xml version="1.0" standalone="no"?>
<!DOCTYPE svg PUBLIC "-//W3C//DTD SVG 20010904//EN"
 "http://www.w3.org/TR/2001/REC-SVG-20010904/DTD/svg10.dtd">
<svg version="1.0" xmlns="http://www.w3.org/2000/svg"
 width="861.000000pt" height="861.000000pt" viewBox="0 0 861.000000 861.000000"
 preserveAspectRatio="xMidYMid meet">
<metadata>
Created by potrace 1.14, written by Peter Selinger 2001-2017
</metadata>
<g transform="translate(0.000000,861.000000) scale(0.100000,-0.100000)"
fill="#000000" stroke="none">
<path d="M7718 5832 c-15 -17 -61 -148 -58 -166 1 -5 -2 -12 -7 -15 -7 -5 -16
-29 -38 -101 -1 -3 -4 -12 -8 -20 -11 -30 -59 -170 -61 -182 -2 -7 -8 -26 -14
-41 -7 -16 -12 -34 -12 -42 0 -8 -5 -17 -10 -20 -6 -4 -10 -12 -9 -18 1 -7 -3
-25 -9 -40 -7 -16 -12 -35 -12 -43 0 -8 -5 -14 -12 -14 -6 0 -9 -3 -6 -6 4 -3
0 -21 -8 -40 -8 -19 -14 -36 -14 -39 -1 -24 -14 -65 -21 -65 -5 0 -9 -8 -9
-18 0 -18 -65 -210 -74 -220 -3 -3 -6 -15 -6 -27 0 -12 -3 -25 -7 -29 -4 -3
-8 -12 -9 -19 -1 -7 -17 -52 -34 -102 -18 -49 -33 -94 -35 -100 -1 -5 -5 -19
-9 -30 -5 -11 -14 -36 -21 -56 -8 -20 -11 -39 -8 -43 4 -3 2 -6 -4 -6 -5 0
-10 -7 -11 -15 -1 -8 -3 -22 -4 -30 -1 -8 -6 -15 -11 -15 -6 0 -8 -3 -4 -6 3
-3 -6 -36 -20 -72 -14 -37 -27 -74 -28 -82 -2 -8 -4 -16 -5 -17 -2 -2 -3 -6
-4 -10 -7 -30 -51 -150 -59 -160 -5 -7 -7 -13 -4 -13 3 0 -15 -57 -40 -127
-24 -71 -46 -132 -47 -138 -1 -5 -11 -35 -21 -65 -11 -30 -20 -57 -20 -60 -1
-3 -4 -12 -8 -20 -6 -17 -30 -91 -33 -102 -1 -5 -3 -11 -4 -15 -1 -5 -2 -11
-1 -15 0 -5 -4 -8 -11 -8 -6 0 -9 -3 -6 -6 4 -3 0 -20 -7 -37 -7 -18 -13 -34
-13 -37 -1 -3 -3 -12 -6 -20 -3 -8 -19 -58 -36 -110 -18 -52 -36 -104 -40
-115 -5 -11 -22 -62 -39 -112 l-30 -93 207 -1 c114 0 238 0 275 0 38 0 71 2
74 5 4 3 12 1 19 -5 8 -7 14 -7 19 1 3 6 11 8 16 5 15 -10 160 -9 168 1 5 5
32 79 61 164 28 85 54 162 58 170 3 8 6 18 7 23 2 4 3 8 5 10 1 1 3 9 5 17 2
8 24 74 50 145 42 119 49 141 60 185 2 8 4 17 5 20 1 3 2 8 1 13 0 4 3 7 9 7
6 0 9 3 9 8 -1 4 0 10 1 15 1 4 3 10 4 15 6 24 30 89 37 98 5 6 6 14 3 17 -3
3 -2 12 2 19 5 7 9 18 10 23 1 6 21 62 43 125 23 63 41 116 41 117 0 2 3 8 5
15 14 37 76 225 80 240 2 9 9 26 15 37 6 12 8 21 4 21 -3 0 -2 6 3 13 10 11
23 57 21 67 -1 3 4 15 11 28 7 13 14 31 16 40 2 9 9 31 16 47 7 17 13 33 14
38 2 4 4 9 5 12 1 3 4 10 5 15 1 6 4 12 5 15 3 5 3 6 15 50 4 17 12 36 18 43
5 6 6 12 2 12 -4 0 -2 7 5 15 7 9 10 18 7 22 -4 3 -3 11 2 17 4 6 52 142 106
301 54 160 102 301 108 315 5 14 12 33 14 43 2 10 9 28 15 40 7 12 11 30 9 40
-1 9 2 17 6 17 5 0 9 8 10 18 1 9 7 31 14 47 7 17 13 32 13 35 1 3 6 19 12 35
7 17 17 50 25 75 7 25 16 49 21 55 4 5 8 17 8 26 0 17 -24 18 -369 17 -203 0
-374 3 -379 6 -5 3 -16 -2 -24 -12z"/>
<path d="M822 5832 c1 -4 -2 -14 -5 -22 -3 -8 -22 -64 -42 -125 -20 -60 -41
-119 -46 -130 -6 -11 -11 -30 -12 -43 0 -12 -4 -22 -7 -22 -3 0 -12 -21 -20
-47 -15 -53 -14 -52 -23 -73 -13 -34 -59 -175 -63 -193 -2 -10 -8 -24 -13 -31
-5 -6 -10 -14 -10 -18 -1 -5 -1 -9 -2 -10 0 -2 -2 -10 -4 -18 -2 -8 -10 -34
-18 -57 -9 -22 -13 -44 -10 -47 4 -3 2 -6 -4 -6 -9 0 -28 -54 -24 -72 0 -5 -4
-8 -10 -8 -5 0 -8 -4 -4 -10 3 -5 1 -17 -4 -27 -12 -22 -23 -52 -27 -74 -2 -9
-8 -29 -14 -45 -6 -16 -12 -31 -12 -34 -1 -3 -12 -34 -25 -70 -13 -36 -26 -72
-28 -80 -2 -8 -5 -22 -7 -30 -1 -8 -5 -17 -8 -20 -3 -3 -18 -45 -34 -95 -16
-49 -34 -103 -41 -120 -16 -39 -127 -378 -126 -387 0 -4 -5 -22 -10 -40 -14
-43 -28 -97 -34 -126 -22 -103 -25 -123 -29 -204 -2 -36 -6 -71 -10 -76 -3 -5
-3 -12 0 -15 4 -3 8 -32 10 -64 4 -59 10 -98 13 -98 2 0 4 -11 7 -25 2 -14 16
-49 29 -78 14 -29 25 -57 25 -62 0 -6 4 -10 9 -10 5 0 12 -8 15 -18 9 -27 124
-144 176 -179 127 -85 296 -142 480 -160 135 -14 438 -4 525 16 22 6 54 12 70
15 77 15 89 18 107 27 11 6 22 8 25 5 3 -3 18 1 34 10 16 8 31 14 34 14 14 1
143 48 169 62 11 7 23 13 26 13 32 5 260 139 268 158 2 4 8 7 13 7 9 0 108 75
173 130 82 70 175 170 286 307 6 7 10 17 10 23 0 5 5 10 10 10 6 0 10 7 10 15
0 8 5 15 12 15 6 0 9 3 5 6 -3 4 4 21 17 38 13 17 27 42 31 56 4 14 11 27 16
30 10 7 112 240 112 258 0 6 5 12 10 12 6 0 8 3 4 6 -3 4 0 19 8 34 8 15 11
30 8 34 -4 3 0 6 7 6 7 0 11 3 7 6 -5 5 15 70 51 164 3 8 6 17 7 20 8 34 59
177 65 184 5 5 6 15 3 22 -3 8 -1 14 4 14 5 0 10 6 10 13 0 10 100 315 120
367 3 8 7 20 9 25 1 6 22 67 47 138 25 70 43 127 40 127 -3 0 -1 6 4 13 5 6
18 39 29 72 10 33 23 63 29 67 5 4 7 8 3 8 -5 0 94 309 119 370 3 8 8 24 10
34 2 11 8 25 14 33 6 7 9 13 5 13 -3 0 1 16 9 36 8 20 15 38 15 40 0 1 -175 3
-389 3 -357 0 -390 -1 -396 -17 -11 -26 -77 -216 -80 -227 -1 -5 -5 -17 -8
-25 -3 -8 -22 -64 -42 -125 -20 -60 -39 -117 -42 -125 -4 -8 -7 -19 -8 -25 -2
-5 -17 -47 -33 -93 -17 -45 -32 -86 -33 -90 -2 -10 -8 -29 -15 -49 -3 -10 -5
-19 -5 -20 0 -2 -13 -38 -29 -82 -16 -43 -26 -81 -23 -85 4 -3 1 -6 -5 -6 -7
0 -11 -3 -10 -7 2 -10 -117 -373 -149 -453 -7 -18 -5 -11 -27 -85 -10 -33 -23
-65 -28 -71 -5 -7 -8 -16 -6 -20 1 -5 -3 -19 -10 -31 -7 -13 -10 -23 -6 -23 3
0 2 -6 -4 -13 -6 -7 -13 -24 -15 -37 -3 -14 -12 -38 -21 -55 -9 -16 -16 -33
-16 -38 0 -8 -103 -219 -128 -261 -44 -74 -184 -215 -223 -224 -8 -2 -16 -7
-19 -10 -6 -8 -98 -55 -102 -52 -2 1 -21 -5 -43 -14 -78 -30 -239 -43 -319
-26 -55 12 -146 51 -146 62 0 5 -5 8 -11 8 -17 0 -67 61 -90 110 -35 72 -32
179 7 335 3 11 7 27 9 35 2 8 4 17 5 20 1 3 2 8 1 13 0 4 3 7 9 7 5 0 10 8 10
19 0 10 13 55 29 99 16 45 26 83 23 87 -3 3 -1 5 5 5 5 0 10 7 11 15 1 8 3 22
4 30 1 8 6 15 11 15 6 0 8 3 5 6 -3 3 7 41 22 84 15 43 25 81 22 84 -3 3 0 6
6 6 7 0 12 9 12 20 0 12 7 34 15 50 9 17 13 30 9 30 -4 0 -1 7 6 15 7 8 9 15
5 15 -4 0 -2 7 5 15 7 8 9 15 6 15 -4 0 -1 10 6 23 7 12 11 28 10 35 -2 6 2
12 8 12 5 0 9 3 8 8 -3 9 52 184 63 197 4 6 7 12 8 15 0 9 46 156 59 190 3 8
6 17 6 20 1 3 4 10 7 15 8 13 23 68 21 78 -1 4 3 7 9 7 5 0 8 4 4 10 -3 5 -1
17 4 27 10 18 38 94 39 103 1 3 4 14 7 25 17 52 28 82 35 100 4 11 14 40 21
65 7 25 16 50 19 55 6 8 20 52 24 75 1 3 5 11 9 18 5 6 6 12 2 12 -3 0 -1 10
6 21 6 12 15 34 19 49 l8 28 -394 1 c-216 0 -393 -3 -392 -7z"/>
<path d="M4074 5824 c-2 -8 -6 -21 -9 -29 -2 -8 -5 -19 -6 -23 0 -4 -5 -15
-11 -25 -5 -10 -11 -26 -13 -35 -2 -9 -15 -47 -29 -84 -14 -38 -23 -68 -19
-68 3 0 1 -6 -5 -12 -6 -7 -10 -15 -10 -18 -1 -3 -6 -18 -12 -34 -6 -16 -12
-36 -14 -45 -2 -9 -6 -24 -10 -33 -4 -9 -9 -22 -10 -30 -2 -7 -8 -26 -14 -41
-7 -16 -12 -34 -12 -41 0 -7 -3 -16 -7 -20 -4 -3 -8 -12 -9 -19 -1 -7 -19 -59
-39 -117 -20 -58 -38 -112 -40 -120 -2 -8 -4 -17 -5 -20 -1 -3 -2 -8 -1 -12 0
-5 -4 -8 -11 -8 -6 0 -9 -3 -6 -6 5 -5 -25 -105 -49 -164 -3 -8 -8 -23 -10
-33 -1 -10 -10 -31 -18 -47 -8 -16 -14 -33 -14 -37 1 -4 -1 -16 -4 -25 -9 -23
-16 -46 -18 -56 0 -4 -5 -13 -11 -19 -6 -7 -8 -13 -5 -13 3 0 -1 -16 -9 -35
-8 -19 -11 -35 -7 -35 5 0 3 -4 -2 -8 -11 -7 -40 -91 -37 -104 1 -5 -3 -8 -8
-8 -5 0 -9 -3 -9 -7 3 -15 -14 -73 -22 -79 -4 -2 -6 -11 -2 -19 3 -8 0 -15 -6
-15 -7 0 -11 -6 -10 -12 1 -7 0 -20 -4 -28 -16 -43 -42 -116 -43 -122 -1 -5
-3 -10 -4 -13 -1 -3 -4 -9 -5 -15 -1 -5 -3 -11 -5 -12 -1 -2 -3 -10 -5 -18 -2
-8 -15 -46 -29 -85 -14 -38 -27 -72 -27 -75 -3 -10 -11 -35 -17 -50 -3 -8 -6
-17 -6 -20 -1 -3 -5 -11 -9 -17 -5 -7 -6 -13 -3 -13 3 0 -3 -22 -14 -49 -10
-27 -16 -52 -13 -55 4 -3 1 -6 -6 -6 -7 0 -11 -6 -8 -14 3 -7 2 -17 -3 -22 -7
-8 -159 -452 -164 -479 -1 -5 -4 -14 -7 -20 -5 -8 -30 -77 -34 -95 -11 -44
-20 -67 -28 -77 -5 -7 -7 -13 -3 -13 4 0 -1 -11 -10 -25 -9 -14 -14 -25 -11
-25 4 0 0 -19 -9 -42 -8 -22 -13 -42 -12 -44 5 -4 116 -6 449 -5 l326 1 18 45
c9 25 18 51 19 58 2 6 6 19 9 27 10 22 47 132 52 152 2 9 8 26 14 37 6 11 11
29 11 40 0 12 5 21 12 21 6 0 9 3 5 6 -3 4 0 22 8 40 8 19 12 34 9 34 -2 0 2
13 11 30 8 16 15 31 15 32 -1 4 1 12 35 108 29 85 29 84 40 125 4 17 11 35 15
40 4 6 11 24 15 40 5 17 9 35 11 40 26 89 172 502 179 507 6 4 7 8 3 8 -4 0 0
19 8 43 9 23 17 49 19 57 2 8 4 16 5 18 2 1 4 7 5 12 1 6 4 12 5 15 1 3 3 8 5
13 1 4 4 14 8 22 9 25 49 144 51 155 1 6 7 19 13 30 6 11 11 22 11 25 -2 14
15 50 23 50 5 0 8 -3 7 -7 -1 -5 9 -30 22 -58 13 -27 24 -53 25 -57 2 -5 4
-11 5 -15 1 -5 2 -11 1 -15 0 -5 4 -8 9 -8 6 0 10 -6 10 -13 0 -7 11 -35 24
-63 13 -27 40 -89 61 -139 20 -49 41 -97 46 -105 5 -8 14 -26 19 -40 13 -33
22 -53 55 -125 15 -33 33 -73 40 -90 33 -76 69 -158 115 -260 12 -27 27 -61
32 -75 6 -14 19 -41 29 -61 11 -20 19 -44 19 -53 0 -9 4 -16 9 -16 5 0 12 -11
15 -24 3 -13 20 -55 37 -92 17 -38 30 -70 30 -72 -1 -1 12 -29 29 -62 16 -33
30 -66 30 -75 0 -8 5 -15 12 -15 6 0 9 -2 6 -6 -3 -3 7 -32 23 -65 16 -32 29
-61 29 -64 0 -3 16 -39 35 -80 32 -71 36 -75 67 -76 103 -2 169 0 177 5 5 4
13 2 16 -4 5 -8 11 -8 19 -1 7 6 15 8 18 5 6 -5 152 -9 173 -4 6 1 15 2 20 0
13 -2 128 -2 140 0 6 1 12 1 15 0 17 -6 50 -5 50 2 0 5 8 5 17 -1 10 -5 26 -5
40 0 13 5 25 4 28 -1 10 -17 44 13 51 45 3 16 11 35 16 42 5 7 7 17 3 23 -3 5
-1 10 6 10 7 0 10 3 6 6 -3 3 6 36 20 72 14 37 27 74 28 82 2 8 4 16 5 18 2 1
3 5 5 10 1 4 4 14 8 22 3 8 11 33 18 55 6 22 16 46 22 53 5 6 7 12 3 12 -4 0
14 59 52 160 3 8 6 20 8 25 1 6 23 68 47 140 25 71 43 133 41 137 -3 5 -1 8 3
8 5 0 15 21 22 48 8 26 17 52 22 57 4 6 8 13 8 17 6 38 15 68 20 68 4 0 7 8 8
18 0 9 10 43 22 74 12 32 23 66 25 75 3 16 15 51 33 93 3 8 7 17 8 20 19 61
28 96 27 103 -1 4 3 7 10 7 6 0 9 2 6 5 -4 5 16 71 55 175 3 8 22 67 43 130
20 63 39 120 43 125 3 6 7 19 8 30 2 11 8 22 13 23 6 2 8 7 6 11 -3 5 83 276
95 299 1 1 2 5 3 10 1 4 4 12 7 17 4 6 10 24 14 40 5 17 9 32 10 35 15 56 41
120 47 120 5 0 7 4 4 9 -3 4 4 32 15 62 11 30 22 61 24 70 2 8 10 32 19 52 8
21 15 41 16 45 0 4 8 30 17 57 10 28 18 52 18 55 1 3 4 12 7 20 21 56 38 107
38 112 0 3 -175 7 -389 7 -420 1 -398 3 -407 -49 -2 -8 -19 -60 -39 -115 -28
-78 -113 -328 -120 -355 -1 -3 -5 -12 -8 -20 -3 -8 -25 -71 -47 -140 -23 -69
-46 -134 -51 -145 -5 -11 -11 -29 -14 -40 -2 -11 -15 -50 -29 -87 -13 -38 -22
-68 -19 -68 3 0 0 -7 -7 -15 -7 -8 -9 -15 -5 -15 4 0 3 -6 -2 -12 -11 -14 -27
-68 -25 -80 1 -5 -3 -8 -8 -8 -6 0 -10 -6 -9 -12 1 -7 -3 -26 -10 -43 -7 -16
-13 -38 -14 -47 -1 -10 -4 -18 -7 -18 -4 0 -7 -6 -8 -12 0 -7 -22 -74 -47
-148 -26 -74 -48 -143 -50 -153 -2 -9 -7 -23 -12 -30 -4 -6 -8 -16 -9 -22 -3
-15 -34 -107 -44 -130 -5 -11 -12 -33 -17 -48 -9 -32 -3 -42 -69 108 -7 17
-40 90 -73 163 -32 72 -57 132 -53 132 3 0 -3 9 -13 20 -10 11 -15 20 -12 20
3 0 -13 39 -35 88 -23 48 -41 93 -41 100 0 6 -4 12 -9 12 -4 0 -8 4 -8 9 0 5
-8 26 -17 47 -9 22 -16 42 -15 46 1 3 -5 12 -13 18 -8 7 -15 18 -15 25 0 7
-16 48 -36 91 -34 76 -47 105 -78 177 -8 17 -30 67 -50 110 -20 43 -36 80 -36
82 0 4 -23 57 -81 183 -16 35 -29 65 -29 67 0 2 -14 34 -32 72 -18 37 -32 70
-33 73 0 3 -4 11 -8 18 -5 6 -5 12 0 12 4 0 3 4 -2 8 -6 4 -22 34 -36 67 l-25
60 -393 2 c-333 1 -393 0 -397 -13z"/>
</g>
</svg>
